<?xml version="1.0" encoding="UTF-8"?>
<svg xmlns="http://www.w3.org/2000/svg" xmlns:xlink="http://www.w3.org/1999/xlink" width="375pt" height="374.999991pt" viewBox="0 0 375 374.999991" version="1.2">
<defs>
<clipPath id="clip1">
  <path d="M 67.679688 82 L 329 82 L 329 297.351562 L 67.679688 297.351562 Z M 67.679688 82 "/>
</clipPath>
<clipPath id="clip2">
  <path d="M 167 45.351562 L 233 45.351562 L 233 111 L 167 111 Z M 167 45.351562 "/>
</clipPath>
</defs>
<g id="surface1">
<path style=" stroke:none;fill-rule:nonzero;fill:;fill-opacity:1;" d="M 114.507812 177.445312 C 114.507812 180.804688 117.222656 183.519531 120.5625 183.519531 C 123.914062 183.519531 126.625 180.804688 126.625 177.445312 C 126.625 174.089844 123.914062 171.371094 120.5625 171.371094 C 117.222656 171.371094 114.507812 174.089844 114.507812 177.445312 "/>
<g clip-path="url(#clip1)" clip-rule="nonzero">
<path style=" stroke:none;fill-rule:nonzero;fill:;fill-opacity:1;" d="M 328.160156 189.773438 C 327.410156 188.074219 325.429688 187.300781 323.734375 188.054688 C 323.457031 188.175781 323.257812 188.234375 323.132812 188.265625 C 322.304688 187.074219 321.859375 182.660156 321.59375 179.972656 C 321.257812 176.621094 320.910156 173.15625 319.960938 170.300781 C 318.742188 166.617188 316.375 165.027344 314.605469 164.339844 C 311.949219 163.304688 309.078125 163.683594 306.859375 164.324219 C 303.433594 153.917969 298.011719 144.367188 290.695312 136.03125 C 276.699219 120.085938 256.0625 109.019531 231.007812 104.015625 C 229.191406 103.644531 227.425781 104.832031 227.0625 106.660156 C 226.695312 108.484375 227.882812 110.253906 229.699219 110.617188 C 267.460938 118.160156 292.9375 139.382812 301.378906 169.09375 C 301.414062 169.480469 301.527344 169.871094 301.699219 170.238281 C 303.519531 177.027344 304.464844 184.25 304.464844 191.847656 C 304.464844 221.480469 289.980469 245.980469 263.679688 260.839844 C 262.179688 261.691406 261.566406 263.542969 262.253906 265.128906 L 266.695312 275.289062 C 267.097656 276.210938 267.117188 277.238281 266.75 278.175781 C 266.386719 279.117188 265.675781 279.855469 264.757812 280.261719 L 242.140625 290.203125 C 241.222656 290.605469 240.195312 290.628906 239.261719 290.265625 C 238.328125 289.894531 237.589844 289.183594 237.1875 288.261719 L 231.5625 275.386719 C 230.933594 273.953125 229.410156 273.148438 227.875 273.425781 C 218.308594 275.207031 207.964844 276.113281 197.128906 276.113281 C 186.296875 276.113281 175.953125 275.207031 166.390625 273.425781 C 164.851562 273.144531 163.328125 273.953125 162.699219 275.386719 L 157.074219 288.261719 C 156.671875 289.183594 155.933594 289.894531 155 290.265625 C 154.0625 290.628906 153.039062 290.605469 152.117188 290.203125 L 129.503906 280.261719 C 127.601562 279.425781 126.734375 277.195312 127.566406 275.289062 L 132.003906 265.128906 C 132.695312 263.542969 132.078125 261.691406 130.578125 260.839844 C 115.023438 252.050781 103.246094 239.457031 96.53125 224.410156 C 95.988281 223.199219 94.792969 222.421875 93.46875 222.417969 L 78.410156 222.40625 C 77.410156 222.40625 76.464844 222.011719 75.757812 221.296875 C 75.046875 220.582031 74.652344 219.632812 74.652344 218.625 L 74.675781 193.859375 C 74.675781 192.851562 75.074219 191.898438 75.785156 191.1875 C 76.496094 190.480469 77.441406 190.089844 78.445312 190.089844 L 86.585938 190.09375 L 86.589844 190.09375 C 88.367188 190.09375 89.839844 188.699219 89.941406 186.917969 C 91.125 166.144531 99.714844 147.914062 114.796875 134.191406 C 114.878906 134.117188 114.941406 134.027344 115.011719 133.949219 C 115.941406 133.292969 116.519531 132.191406 116.433594 130.96875 C 114.589844 104.28125 117.734375 92.226562 121.292969 89.847656 C 121.6875 89.582031 122.097656 89.445312 122.800781 89.636719 C 124.378906 90.070312 130.332031 93.140625 140.664062 114.515625 C 141.476562 116.191406 143.480469 116.886719 145.148438 116.078125 C 145.273438 116.019531 145.378906 115.9375 145.496094 115.863281 C 145.738281 115.832031 145.976562 115.785156 146.21875 115.699219 C 153.976562 112.878906 162.457031 110.769531 171.433594 109.417969 C 173.265625 109.144531 174.527344 107.429688 174.253906 105.589844 C 173.976562 103.75 172.265625 102.480469 170.4375 102.757812 C 161.566406 104.089844 153.148438 106.152344 145.367188 108.863281 C 133.71875 85.648438 126.867188 83.773438 124.5625 83.140625 C 122.082031 82.460938 119.664062 82.84375 117.570312 84.242188 C 110.679688 88.851562 108.011719 104.179688 109.632812 129.808594 C 94.390625 143.957031 85.390625 162.398438 83.472656 183.359375 L 78.457031 183.351562 C 78.449219 183.351562 78.445312 183.351562 78.445312 183.351562 C 75.648438 183.351562 73.019531 184.441406 71.039062 186.421875 C 69.0625 188.40625 67.964844 191.042969 67.964844 193.851562 L 67.941406 218.617188 C 67.9375 221.429688 69.027344 224.070312 71 226.054688 C 72.980469 228.039062 75.613281 229.136719 78.410156 229.140625 L 91.320312 229.152344 C 98.347656 243.789062 109.804688 256.164062 124.652344 265.171875 L 121.417969 272.585938 C 119.097656 277.894531 121.515625 284.101562 126.808594 286.429688 L 149.421875 296.375 C 151.984375 297.5 154.835938 297.554688 157.441406 296.535156 C 160.050781 295.515625 162.101562 293.535156 163.226562 290.960938 L 167.789062 280.515625 C 177.015625 282.0625 186.871094 282.847656 197.128906 282.847656 C 207.390625 282.847656 217.25 282.0625 226.472656 280.515625 L 231.03125 290.960938 C 232.15625 293.535156 234.214844 295.515625 236.820312 296.535156 C 238.054688 297.019531 239.347656 297.261719 240.632812 297.261719 C 242.0625 297.261719 243.492188 296.964844 244.839844 296.375 L 267.453125 286.429688 C 270.015625 285.300781 271.988281 283.242188 273.007812 280.628906 C 274.023438 278.011719 273.96875 275.152344 272.84375 272.585938 L 269.609375 265.175781 C 282.625 257.296875 292.839844 247.066406 299.988281 234.738281 C 307.410156 221.929688 311.179688 207.496094 311.179688 191.847656 C 311.179688 184.574219 310.328125 177.535156 308.703125 170.800781 C 309.902344 170.449219 311.25 170.257812 312.179688 170.621094 C 312.4375 170.71875 313.109375 170.980469 313.597656 172.4375 C 314.304688 174.574219 314.613281 177.660156 314.914062 180.644531 C 315.496094 186.480469 316.046875 191.992188 319.8125 194.199219 C 320.5625 194.632812 321.609375 195.023438 322.945312 195.023438 C 323.945312 195.023438 325.113281 194.804688 326.445312 194.21875 C 328.140625 193.464844 328.910156 191.476562 328.160156 189.773438 "/>
</g>
<path style=" stroke:none;fill-rule:nonzero;fill:;fill-opacity:1;" d="M 171.464844 121.558594 C 171.964844 123.347656 173.816406 124.386719 175.601562 123.890625 C 175.882812 123.8125 204.222656 116.042969 234.976562 125.300781 C 235.304688 125.398438 235.625 125.445312 235.945312 125.445312 C 237.390625 125.445312 238.726562 124.503906 239.160156 123.042969 C 239.695312 121.261719 238.683594 119.382812 236.90625 118.847656 C 204.300781 109.039062 175.019531 117.058594 173.789062 117.40625 C 172.003906 117.910156 170.960938 119.765625 171.464844 121.558594 "/>
<path style=" stroke:none;fill-rule:nonzero;fill:;fill-opacity:1;" d="M 191.070312 83.921875 C 191.085938 84.046875 191.109375 84.175781 191.15625 84.308594 C 191.265625 84.652344 191.378906 84.976562 191.492188 85.277344 C 191.617188 85.582031 191.757812 85.871094 191.929688 86.152344 C 192.441406 87.011719 193.0625 87.71875 193.785156 88.257812 C 194.359375 88.6875 195.054688 89.054688 195.847656 89.359375 L 195.847656 91.75 C 195.847656 92.46875 196.425781 93.050781 197.148438 93.050781 C 197.863281 93.050781 198.445312 92.46875 198.445312 91.75 L 198.445312 90.027344 C 198.589844 90.050781 198.742188 90.066406 198.894531 90.066406 C 199.113281 90.066406 199.324219 90.085938 199.539062 90.132812 L 199.894531 90.132812 C 200.003906 90.152344 200.160156 90.160156 200.363281 90.160156 C 200.566406 90.160156 200.722656 90.152344 200.832031 90.132812 C 200.953125 90.132812 201.070312 90.125 201.1875 90.117188 L 201.1875 91.75 C 201.1875 92.46875 201.773438 93.050781 202.488281 93.050781 C 203.207031 93.050781 203.789062 92.46875 203.789062 91.75 L 203.789062 89.710938 C 203.792969 89.710938 203.796875 89.707031 203.800781 89.707031 C 204.035156 89.644531 204.253906 89.582031 204.460938 89.515625 C 204.664062 89.453125 204.875 89.375 205.085938 89.289062 C 205.734375 88.988281 206.335938 88.644531 206.894531 88.257812 C 207.457031 87.867188 207.914062 87.390625 208.28125 86.832031 C 208.476562 86.574219 208.636719 86.292969 208.765625 85.988281 C 208.898438 85.6875 209.011719 85.371094 209.121094 85.050781 C 209.183594 84.878906 209.226562 84.703125 209.230469 84.515625 C 209.242188 84.332031 209.269531 84.15625 209.316406 83.984375 C 209.316406 83.898438 209.316406 83.8125 209.316406 83.722656 C 209.316406 83.636719 209.324219 83.550781 209.34375 83.464844 L 209.34375 82.820312 C 209.300781 82.6875 209.28125 82.554688 209.28125 82.417969 C 209.28125 82.277344 209.261719 82.152344 209.21875 82.042969 C 209.175781 81.828125 209.132812 81.621094 209.089844 81.425781 C 209.042969 81.234375 208.980469 81.042969 208.898438 80.847656 C 208.660156 80.308594 208.351562 79.839844 207.976562 79.4375 C 207.597656 79.039062 207.175781 78.691406 206.703125 78.382812 C 206.335938 78.148438 205.945312 77.941406 205.542969 77.773438 C 205.132812 77.597656 204.710938 77.4375 204.28125 77.289062 C 204.089844 77.222656 203.894531 77.164062 203.699219 77.113281 C 203.507812 77.054688 203.3125 77.007812 203.121094 76.964844 C 203.035156 76.945312 202.960938 76.925781 202.894531 76.917969 C 202.832031 76.90625 202.753906 76.886719 202.667969 76.867188 C 202.367188 76.757812 202.050781 76.679688 201.71875 76.625 C 201.382812 76.570312 201.066406 76.5 200.765625 76.414062 C 200.574219 76.347656 200.378906 76.308594 200.1875 76.285156 C 199.992188 76.261719 199.800781 76.234375 199.605469 76.183594 C 198.980469 76.015625 198.378906 75.851562 197.796875 75.703125 C 197.21875 75.550781 196.691406 75.324219 196.21875 75.023438 C 195.8125 74.785156 195.496094 74.535156 195.265625 74.277344 C 195.039062 74.023438 194.855469 73.640625 194.707031 73.144531 C 194.65625 72.996094 194.632812 72.808594 194.621094 72.597656 C 194.613281 72.378906 194.625 72.183594 194.671875 72.011719 C 194.714844 71.796875 194.753906 71.597656 194.785156 71.414062 C 194.816406 71.234375 194.875 71.054688 194.960938 70.878906 C 195.128906 70.449219 195.390625 70.089844 195.734375 69.796875 C 196.078125 69.503906 196.460938 69.273438 196.898438 69.097656 C 197.652344 68.753906 198.585938 68.585938 199.699219 68.585938 C 199.871094 68.585938 200.046875 68.585938 200.21875 68.585938 C 200.390625 68.585938 200.5625 68.605469 200.734375 68.648438 L 200.992188 68.648438 C 201.121094 68.691406 201.253906 68.71875 201.378906 68.734375 C 201.507812 68.742188 201.640625 68.769531 201.765625 68.808594 C 202.453125 68.984375 203.046875 69.242188 203.539062 69.589844 C 204.207031 70.019531 204.71875 70.664062 205.085938 71.527344 C 205.195312 71.746094 205.277344 71.992188 205.332031 72.273438 C 205.382812 72.550781 205.472656 72.789062 205.605469 72.988281 C 205.648438 73.027344 205.691406 73.0625 205.734375 73.09375 C 205.773438 73.128906 205.820312 73.160156 205.863281 73.179688 C 205.945312 73.21875 206.03125 73.242188 206.105469 73.242188 C 206.179688 73.242188 206.273438 73.253906 206.378906 73.277344 C 206.464844 73.296875 206.550781 73.308594 206.636719 73.308594 C 206.71875 73.308594 206.820312 73.308594 206.929688 73.308594 C 207.1875 73.308594 207.433594 73.296875 207.667969 73.277344 C 207.90625 73.253906 208.078125 73.167969 208.183594 73.015625 C 208.246094 72.910156 208.285156 72.753906 208.296875 72.546875 C 208.308594 72.34375 208.292969 72.152344 208.246094 71.984375 C 208.140625 71.570312 208.035156 71.179688 207.929688 70.800781 C 207.820312 70.421875 207.667969 70.082031 207.472656 69.78125 C 207.410156 69.671875 207.351562 69.558594 207.296875 69.445312 C 207.242188 69.324219 207.175781 69.210938 207.085938 69.097656 C 207 68.992188 206.914062 68.886719 206.832031 68.777344 C 206.746094 68.671875 206.660156 68.5625 206.574219 68.453125 C 206.527344 68.394531 206.472656 68.328125 206.410156 68.273438 C 206.347656 68.222656 206.292969 68.175781 206.246094 68.128906 C 206.207031 68.089844 206.164062 68.054688 206.121094 68.019531 C 206.078125 67.984375 206.035156 67.949219 205.992188 67.902344 C 205.886719 67.796875 205.769531 67.710938 205.652344 67.644531 C 205.53125 67.582031 205.414062 67.503906 205.28125 67.421875 C 204.828125 67.125 204.328125 66.878906 203.789062 66.679688 L 203.789062 64.292969 C 203.789062 63.570312 203.207031 62.988281 202.488281 62.988281 C 201.773438 62.988281 201.1875 63.570312 201.1875 64.292969 L 201.1875 66.101562 C 200.660156 66.054688 200.105469 66.039062 199.507812 66.058594 C 199.464844 66.105469 199.378906 66.113281 199.253906 66.09375 C 199.121094 66.070312 199.027344 66.070312 198.960938 66.09375 C 198.804688 66.132812 198.632812 66.148438 198.445312 66.15625 L 198.445312 64.292969 C 198.445312 63.570312 197.863281 62.988281 197.148438 62.988281 C 196.425781 62.988281 195.847656 63.570312 195.847656 64.292969 L 195.847656 66.789062 C 195.625 66.875 195.410156 66.964844 195.21875 67.066406 C 195.175781 67.109375 195.121094 67.136719 195.058594 67.144531 C 194.996094 67.15625 194.9375 67.179688 194.898438 67.226562 C 194.316406 67.589844 193.789062 67.996094 193.320312 68.4375 C 192.84375 68.878906 192.457031 69.429688 192.15625 70.074219 C 192.070312 70.269531 192 70.472656 191.949219 70.6875 C 191.894531 70.902344 191.828125 71.128906 191.765625 71.367188 C 191.703125 71.582031 191.652344 71.890625 191.609375 72.289062 C 191.5625 72.6875 191.578125 73.015625 191.640625 73.277344 C 191.640625 73.339844 191.644531 73.402344 191.65625 73.46875 C 191.667969 73.535156 191.671875 73.613281 191.671875 73.699219 C 191.734375 73.933594 191.789062 74.164062 191.828125 74.390625 C 191.878906 74.617188 191.949219 74.828125 192.058594 75.023438 C 192.296875 75.582031 192.617188 76.042969 193.023438 76.398438 C 193.433594 76.753906 193.886719 77.078125 194.382812 77.386719 C 194.574219 77.511719 194.777344 77.621094 194.996094 77.707031 C 195.207031 77.792969 195.425781 77.882812 195.640625 77.96875 C 195.679688 77.988281 195.714844 78 195.734375 78 C 195.753906 78 195.789062 78.007812 195.832031 78.03125 C 196.132812 78.160156 196.457031 78.265625 196.796875 78.339844 C 197.144531 78.414062 197.488281 78.507812 197.832031 78.613281 C 198.433594 78.789062 199.058594 78.9375 199.699219 79.066406 C 200.347656 79.195312 200.976562 79.328125 201.589844 79.472656 C 202.207031 79.613281 202.789062 79.777344 203.34375 79.972656 C 203.90625 80.167969 204.414062 80.425781 204.859375 80.75 C 205.164062 80.964844 205.421875 81.195312 205.636719 81.445312 C 205.851562 81.691406 206.027344 82 206.152344 82.367188 C 206.195312 82.453125 206.21875 82.53125 206.21875 82.609375 C 206.21875 82.683594 206.238281 82.777344 206.28125 82.882812 C 206.324219 83.035156 206.347656 83.230469 206.347656 83.464844 C 206.347656 83.707031 206.324219 83.910156 206.28125 84.082031 C 206.238281 84.253906 206.195312 84.425781 206.152344 84.597656 C 206.105469 84.773438 206.054688 84.941406 205.992188 85.117188 C 205.753906 85.652344 205.417969 86.082031 204.976562 86.394531 C 204.535156 86.707031 204.035156 86.980469 203.476562 87.21875 C 203.304688 87.28125 203.121094 87.332031 202.925781 87.367188 C 202.730469 87.398438 202.554688 87.4375 202.382812 87.476562 C 202.367188 87.484375 202.359375 87.484375 202.347656 87.492188 C 202.28125 87.496094 202.214844 87.507812 202.152344 87.527344 C 202.101562 87.519531 202.050781 87.523438 201.992188 87.542969 C 201.886719 87.566406 201.777344 87.574219 201.671875 87.574219 C 201.5625 87.574219 201.453125 87.585938 201.347656 87.609375 L 201.121094 87.609375 C 201.011719 87.652344 200.882812 87.671875 200.71875 87.671875 C 200.554688 87.671875 200.433594 87.660156 200.347656 87.640625 C 200.238281 87.597656 200.128906 87.585938 200.011719 87.609375 C 199.890625 87.628906 199.789062 87.628906 199.699219 87.609375 C 199.640625 87.609375 199.574219 87.601562 199.507812 87.59375 C 199.445312 87.582031 199.390625 87.574219 199.347656 87.574219 C 199.175781 87.550781 199.003906 87.53125 198.832031 87.511719 C 198.65625 87.492188 198.488281 87.457031 198.316406 87.414062 C 197.820312 87.261719 197.359375 87.101562 196.929688 86.929688 C 196.496094 86.753906 196.101562 86.527344 195.734375 86.25 C 195.003906 85.707031 194.453125 84.976562 194.089844 84.046875 C 194.023438 83.898438 193.976562 83.75 193.949219 83.597656 C 193.914062 83.441406 193.875 83.296875 193.832031 83.144531 C 193.789062 83.011719 193.761719 82.890625 193.75 82.769531 C 193.742188 82.652344 193.703125 82.539062 193.636719 82.433594 C 193.597656 82.347656 193.496094 82.257812 193.347656 82.171875 C 193.261719 82.128906 193.1875 82.113281 193.121094 82.125 C 193.054688 82.132812 192.972656 82.128906 192.863281 82.109375 C 192.800781 82.085938 192.722656 82.078125 192.621094 82.078125 C 192.527344 82.078125 192.4375 82.078125 192.347656 82.078125 C 192.109375 82.078125 191.871094 82.085938 191.621094 82.109375 C 191.378906 82.128906 191.199219 82.214844 191.089844 82.367188 C 190.980469 82.472656 190.929688 82.652344 190.929688 82.898438 C 190.929688 83.148438 190.949219 83.367188 190.996094 83.5625 C 191.039062 83.671875 191.0625 83.789062 191.070312 83.921875 "/>
<g clip-path="url(#clip2)" clip-rule="nonzero">
<path style=" stroke:none;fill-rule:nonzero;fill:;fill-opacity:1;" d="M 200.136719 52.09375 C 214.390625 52.09375 225.984375 63.726562 225.984375 78.019531 C 225.984375 92.316406 214.390625 103.945312 200.136719 103.945312 C 185.886719 103.945312 174.292969 92.316406 174.292969 78.019531 C 174.292969 63.726562 185.886719 52.09375 200.136719 52.09375 Z M 200.136719 110.683594 C 218.09375 110.683594 232.699219 96.03125 232.699219 78.019531 C 232.699219 60.011719 218.09375 45.359375 200.136719 45.359375 C 182.183594 45.359375 167.574219 60.011719 167.574219 78.019531 C 167.574219 96.03125 182.183594 110.683594 200.136719 110.683594 "/>
</g>
</g>
</svg>
